<svg width="56" height="56" viewBox="0 0 56 56" fill="none" xmlns="http://www.w3.org/2000/svg">
<circle cx="28" cy="28" r="28" fill="#0456FB" fill-opacity="0.3"/>
<path d="M20.2676 29.7674L32.4337 40.7951C32.5849 40.9325 32.7748 41 32.9642 41C33.1794 41 33.3933 40.9124 33.5492 40.7407C33.8417 40.4178 33.8176 39.9185 33.4943 39.626L21.794 29.0198L32.3998 17.3191C32.6927 16.9963 32.6682 16.4969 32.3449 16.2044C32.0224 15.9116 31.5231 15.9364 31.2302 16.2593L20.2021 28.4258C20.0288 28.6172 19.9692 28.8702 20.0146 29.1059C19.9913 29.3459 20.075 29.5934 20.2676 29.7674Z" fill="black" fill-opacity="0.6"/>
<path d="M33.9198 41.0764L33.9194 41.0768C33.6652 41.3566 33.3151 41.5 32.9642 41.5C32.6559 41.5 32.3449 41.3898 32.0979 41.1656L33.9198 41.0764ZM33.9198 41.0764C34.3971 40.5494 34.3585 39.7339 33.8301 39.2555L33.9198 41.0764ZM30.8598 15.9235L30.8599 15.9234C31.3377 15.3967 32.1531 15.3551 32.6808 15.8341C33.2087 16.3121 33.2484 17.1276 32.7702 17.6549C32.7702 17.655 32.7702 17.655 32.7701 17.6551L22.5003 28.9852L33.8298 39.2552L30.8598 15.9235ZM30.8598 15.9235L19.8317 28.09L19.8314 28.0902M30.8598 15.9235L19.8314 28.0902M19.8314 28.0902C19.5636 28.3861 19.4631 28.7696 19.512 29.1294M19.8314 28.0902L19.512 29.1294M19.512 29.1294C19.4968 29.4935 19.6337 29.8681 19.9319 30.1379L19.512 29.1294ZM19.9324 30.1384L32.0975 41.1652L19.9324 30.1384Z" stroke="black" stroke-opacity="0.6"/>
</svg>
