<svg width="110" height="110" viewBox="0 0 110 110" fill="none" xmlns="http://www.w3.org/2000/svg">
<path d="M92.8125 44.6875H92.5272L89.6397 10.0272C89.4884 8.24656 88 6.875 86.2125 6.875H78.7875C77 6.875 75.5116 8.24656 75.3603 10.0272L72.4728 44.6875H68.4613L65.5737 10.0272C65.4259 8.24656 63.9375 6.875 62.15 6.875H54.725C52.9375 6.875 51.4491 8.24656 51.2978 10.0272L48.4103 44.6875H17.1875C11.4916 44.6875 6.875 49.3041 6.875 55V92.8125C6.875 98.5084 11.4916 103.125 17.1875 103.125H41.25H68.75H92.8125C98.5084 103.125 103.125 98.5084 103.125 92.8125V55C103.125 49.3041 98.5084 44.6875 92.8125 44.6875ZM78.7875 10.3125H86.2125L89.0759 44.6875H75.9241L78.7875 10.3125ZM54.725 10.3125H62.15L65.0134 44.6875H51.8616L54.725 10.3125ZM41.25 99.6875V82.5H53.2812V99.6875H41.25ZM56.7188 99.6875V82.5H68.75V99.6875H56.7188ZM99.6875 92.8125C99.6875 96.6041 96.6041 99.6875 92.8125 99.6875H72.1875V82.5C72.1875 80.6025 70.6475 79.0625 68.75 79.0625H41.25C39.3525 79.0625 37.8125 80.6025 37.8125 82.5V99.6875H17.1875C13.3959 99.6875 10.3125 96.6041 10.3125 92.8125V55C10.3125 51.2084 13.3959 48.125 17.1875 48.125H92.8125C96.6041 48.125 99.6875 51.2084 99.6875 55V92.8125ZM27.5 79.0625H20.625C18.7275 79.0625 17.1875 80.6025 17.1875 82.5V89.375C17.1875 91.2725 18.7275 92.8125 20.625 92.8125H27.5C29.3975 92.8125 30.9375 91.2725 30.9375 89.375V82.5C30.9375 80.6025 29.3975 79.0625 27.5 79.0625ZM27.5 89.375H20.625V82.5H27.5V89.375ZM89.375 79.0625H82.5C80.6025 79.0625 79.0625 80.6025 79.0625 82.5V89.375C79.0625 91.2725 80.6025 92.8125 82.5 92.8125H89.375C91.2725 92.8125 92.8125 91.2725 92.8125 89.375V82.5C92.8125 80.6025 91.2725 79.0625 89.375 79.0625ZM89.375 89.375H82.5V82.5H89.375V89.375ZM89.375 58.4375H82.5C80.6025 58.4375 79.0625 59.9775 79.0625 61.875V68.75C79.0625 70.6475 80.6025 72.1875 82.5 72.1875H89.375C91.2725 72.1875 92.8125 70.6475 92.8125 68.75V61.875C92.8125 59.9775 91.2725 58.4375 89.375 58.4375ZM89.375 68.75H82.5V61.875H89.375V68.75ZM68.75 58.4375H61.875C59.9775 58.4375 58.4375 59.9775 58.4375 61.875V68.75C58.4375 70.6475 59.9775 72.1875 61.875 72.1875H68.75C70.6475 72.1875 72.1875 70.6475 72.1875 68.75V61.875C72.1875 59.9775 70.6475 58.4375 68.75 58.4375ZM68.75 68.75H61.875V61.875H68.75V68.75ZM48.125 58.4375H41.25C39.3525 58.4375 37.8125 59.9775 37.8125 61.875V68.75C37.8125 70.6475 39.3525 72.1875 41.25 72.1875H48.125C50.0225 72.1875 51.5625 70.6475 51.5625 68.75V61.875C51.5625 59.9775 50.0225 58.4375 48.125 58.4375ZM48.125 68.75H41.25V61.875H48.125V68.75ZM27.5 58.4375H20.625C18.7275 58.4375 17.1875 59.9775 17.1875 61.875V68.75C17.1875 70.6475 18.7275 72.1875 20.625 72.1875H27.5C29.3975 72.1875 30.9375 70.6475 30.9375 68.75V61.875C30.9375 59.9775 29.3975 58.4375 27.5 58.4375ZM27.5 68.75H20.625V61.875H27.5V68.75Z" fill="#0456FB"/>
</svg>
