<svg width="110" height="110" viewBox="0 0 110 110" fill="none" xmlns="http://www.w3.org/2000/svg">
<g clip-path="url(#clip0_0_1146)">
<path d="M79.75 5.8667L78.1 9.1667C95.15 17.6 106.333 35.75 106.333 55C106.333 68.9334 100.65 81.5834 91.6667 90.75V55C91.6667 34.8334 75.1667 18.3334 55 18.3334C34.8333 18.3334 18.3333 34.8334 18.3333 55V90.75C9.35 81.4 3.66667 68.75 3.66667 55C3.66667 35.75 14.85 17.6 31.9 9.1667L30.4333 5.8667C11.9167 15.0334 0 34.2834 0 55C0 85.25 24.75 110 55 110C85.25 110 110 85.25 110 55C110 34.2834 98.0833 15.0334 79.75 5.8667ZM22 94.2334V55C22 36.85 36.85 22 55 22C73.15 22 88 36.85 88 55V94.2334C79.0167 101.75 67.4667 106.333 55 106.333C42.5333 106.333 30.9833 101.75 22 94.2334Z" fill="#0456FB"/>
<path d="M73.333 54.9998H60.4997V25.6665H56.833V54.9998H53.1663V25.6665H49.4997V54.9998H36.6663C35.5663 54.9998 34.833 55.7332 34.833 56.8332V64.1665V82.4998C34.833 83.0498 35.0163 83.5998 35.5663 83.9665L53.8997 98.6332C54.2663 98.8165 54.633 98.9998 54.9997 98.9998C55.3663 98.9998 55.733 98.8165 56.0997 98.6332L74.433 83.9665C74.983 83.5998 75.1663 83.0498 75.1663 82.4998V64.1665V56.8332C75.1663 55.7332 74.433 54.9998 73.333 54.9998ZM38.4997 58.6665H71.4997V62.3332H38.4997V58.6665ZM71.4997 81.5832L56.833 93.3165V76.9998H60.4997V73.3332H49.4997V76.9998H53.1663V93.3165L38.4997 81.5832V65.9998H71.4997V81.5832Z" fill="#0456FB"/>
<path d="M44.0003 11H49.5003V14.6667H53.167V11H56.8337V14.6667H60.5003V11H66.0003C67.1003 11 67.8337 10.2667 67.8337 9.16667V1.83333C67.8337 0.733333 67.1003 0 66.0003 0H44.0003C42.9003 0 42.167 0.733333 42.167 1.83333V9.16667C42.167 10.2667 42.9003 11 44.0003 11ZM45.8337 3.66667H64.167V7.33333H45.8337V3.66667Z" fill="#0456FB"/>
<path d="M67.8337 47.6665H64.167V51.3332H67.8337V47.6665Z" fill="#0456FB"/>
<path d="M75.1667 47.6667H71.5V51.3334H75.1667V47.6667Z" fill="#0456FB"/>
<path d="M67.8337 40.3335H64.167V44.0002H67.8337V40.3335Z" fill="#0456FB"/>
<path d="M75.1667 40.3333H71.5V43.9999H75.1667V40.3333Z" fill="#0456FB"/>
<path d="M38.4997 40.3335H34.833V44.0002H38.4997V40.3335Z" fill="#0456FB"/>
<path d="M45.8337 40.3335H42.167V44.0002H45.8337V40.3335Z" fill="#0456FB"/>
<path d="M82.4997 47.6665H78.833V51.3332H82.4997V47.6665Z" fill="#0456FB"/>
<path d="M31.1667 47.6667H27.5V51.3334H31.1667V47.6667Z" fill="#0456FB"/>
<path d="M38.4997 47.6665H34.833V51.3332H38.4997V47.6665Z" fill="#0456FB"/>
<path d="M45.8337 47.6665H42.167V51.3332H45.8337V47.6665Z" fill="#0456FB"/>
<path d="M67.8337 33H64.167V36.6667H67.8337V33Z" fill="#0456FB"/>
<path d="M45.8337 33H42.167V36.6667H45.8337V33Z" fill="#0456FB"/>
</g>
<defs>
<clipPath id="clip0_0_1146">
<rect width="110" height="110" fill="white"/>
</clipPath>
</defs>
</svg>
