<svg width="100" height="100" viewBox="0 0 100 100" fill="none" xmlns="http://www.w3.org/2000/svg">
<circle cx="50" cy="50" r="49" fill="#0456FB" stroke="#0456FB" stroke-width="2"/>
<rect width="60" height="60" transform="translate(20 20)" fill="#0456FB"/>
<path d="M69.9996 47.4975H74.9996C74.9996 34.6725 65.3171 25 52.4746 25V30C62.6296 30 69.9996 37.3575 69.9996 47.4975Z" fill="white"/>
<path d="M52.5007 40.0001C57.7582 40.0001 60.0007 42.2426 60.0007 47.5001H65.0007C65.0007 39.4376 60.5632 35.0001 52.5007 35.0001V40.0001ZM61.0557 53.6076C60.5753 53.171 59.9441 52.9381 59.2952 52.9582C58.6464 52.9782 58.0307 53.2497 57.5782 53.7151L51.5957 59.8676C50.1557 59.5926 47.2607 58.6901 44.2807 55.7176C41.3007 52.7351 40.3982 49.8326 40.1307 48.4026L46.2782 42.4176C46.7442 41.9654 47.016 41.3497 47.0361 40.7006C47.0562 40.0516 46.8229 39.4202 46.3857 38.9401L37.1482 28.7826C36.7108 28.301 36.1029 28.0089 35.4536 27.9683C34.8043 27.9276 34.1647 28.1418 33.6707 28.5651L28.2457 33.2176C27.8135 33.6514 27.5555 34.2287 27.5207 34.8401C27.4832 35.4651 26.7682 50.2701 38.2482 61.7551C48.2632 71.7676 60.8082 72.5001 64.2632 72.5001C64.7682 72.5001 65.0782 72.4851 65.1607 72.4801C65.772 72.4459 66.349 72.1868 66.7807 71.7526L71.4307 66.3251C71.8544 65.8314 72.0689 65.192 72.0288 64.5427C71.9886 63.8934 71.697 63.2853 71.2157 62.8476L61.0557 53.6076Z" fill="white"/>
</svg>
