<svg width="30" height="30" viewBox="0 0 30 30" fill="none" xmlns="http://www.w3.org/2000/svg">
<circle cx="15" cy="15" r="15" fill="#0456FB"/>
<path fill-rule="evenodd" clip-rule="evenodd" d="M19.0747 17.8848C18.906 18.3623 18.2354 18.7574 17.7006 18.8729C17.3345 18.9506 16.8571 19.0121 15.2485 18.3455C13.4418 17.597 10.933 14.9307 10.933 13.1563C10.933 12.2531 11.4538 11.2013 12.3645 11.2013C12.8027 11.2013 12.8993 11.2098 13.0435 11.5557C13.2122 11.9632 13.6238 12.9673 13.6728 13.0702C13.8751 13.4924 13.467 13.7396 13.1709 14.1072C13.0764 14.2179 12.9693 14.3375 13.089 14.5434C13.208 14.745 13.6196 15.4158 14.2244 15.9543C15.0056 16.6503 15.6391 16.8725 15.8659 16.967C16.0346 17.0371 16.2362 17.0208 16.3594 16.8891C16.5155 16.7204 16.7094 16.4404 16.9068 16.1645C17.0461 15.967 17.2232 15.9424 17.4087 16.0124C17.534 16.0558 19.1265 16.7954 19.1937 16.9137C19.2434 16.9998 19.2434 17.4072 19.0747 17.8848ZM15.0014 8H14.9979C11.1388 8 8 11.1397 8 15C8 16.5307 8.4935 17.9507 9.3328 19.1026L8.4606 21.7037L11.1507 20.844C12.2574 21.5765 13.5783 22 15.0014 22C18.8605 22 22 18.8603 22 15C22 11.1397 18.8605 8 15.0014 8Z" fill="white"/>
</svg>
