<svg width="40" height="40" viewBox="0 0 40 40" fill="none" xmlns="http://www.w3.org/2000/svg">
<rect width="40" height="40" rx="20" fill="white"/>
<path d="M13.7901 9.87178L13.7905 9.87134C14.0134 9.62583 14.3207 9.5 14.6286 9.5C14.8991 9.5 15.1721 9.59671 15.3888 9.79343L13.7901 9.87178ZM13.7901 9.87178C13.3712 10.3342 13.405 11.0498 13.8687 11.4697L14.2045 11.0992C13.9459 10.8652 13.9266 10.4658 14.1606 10.2075C14.2854 10.0701 14.4565 10 14.6286 10C14.7802 10 14.9321 10.054 15.053 10.1639L13.7901 9.87178ZM14.7098 28.6088L22.8585 19.6188L13.8691 11.47L14.7098 28.6088ZM14.7098 28.6088C14.7098 28.6088 14.7098 28.6089 14.7097 28.6089L14.7098 28.6088ZM25.1211 18.6151L15.3893 9.79383L15.1241 29.8364L14.7879 30.2066C14.7879 30.2066 14.788 30.2066 14.788 30.2067C15.2512 30.6272 15.9669 30.5907 16.3862 30.1285L16.3863 30.1283L25.2088 20.3952L25.209 20.3949C25.4421 20.1374 25.5307 19.8045 25.4906 19.4918C25.5013 19.1755 25.3812 18.8504 25.1216 18.6155C25.1214 18.6154 25.1213 18.6152 25.1211 18.6151Z" fill="black" stroke="black"/>
</svg>
