<svg width="99" height="108" viewBox="0 0 99 108" fill="none" xmlns="http://www.w3.org/2000/svg">
<path d="M22.0129 3.73793C20.3836 3.74636 18.7621 3.91364 17.1607 4.25177C37.8308 17.825 53.2653 35.9683 65.4464 56.9532C65.9348 45.6132 61.7591 33.9336 55.0953 24.4161C52.3695 25.5337 49.0089 24.5726 46.6904 22.0431C44.3739 19.5161 43.4887 15.8527 44.5089 12.8804C37.6007 7.19414 29.7155 3.69574 22.0129 3.73793ZM95.5981 8.04211L81.882 24.4161L87.6943 50.9021L77.0418 52.7541L73.2893 69.7611L87.5012 78.0139L79.5251 89.8131L85.2598 99.1013L68.0929 93.2741L71.2834 84.0258L56.4552 76.8868L58.9928 59.0493L37.4574 71.3101L36.6415 87.8159L14.9427 81.9822L8.51348 103.953H95.5979L95.5981 8.04211ZM50.497 12.3864C50.422 12.3885 50.347 12.3923 50.2735 12.399C49.5689 12.4676 48.9428 12.7568 48.4969 13.2428C47.3083 14.54 47.3859 17.2253 49.2462 19.2545C51.1067 21.2843 53.5683 21.3689 54.7569 20.0721C55.9457 18.7752 55.8682 16.09 54.0077 14.0604C52.9177 12.8713 51.6226 12.3528 50.497 12.3864ZM37.9952 26.9143L4.88818 63.0438C5.71441 65.5595 7.02036 67.4841 9.77051 68.4493L42.92 32.2735C41.4126 30.3983 39.7667 28.6172 37.9952 26.9143ZM68.6968 29.3664L70.4977 47.2299L75.8029 29.3662H68.697L68.6968 29.3664ZM43.1675 45.18L39.2702 52.7604L57.1921 54.3161L43.1675 45.18Z" fill="#0456FB"/>
</svg>
