<svg width="30" height="30" viewBox="0 0 30 30" fill="none" xmlns="http://www.w3.org/2000/svg">
<circle cx="15" cy="15" r="15" fill="#0456FB"/>
<path d="M20.9879 8.00135H9.2088C9.05697 7.99379 8.90523 8.01812 8.76226 8.07295C8.6193 8.12777 8.48792 8.21202 8.37564 8.32085C8.26336 8.4297 8.17238 8.561 8.10793 8.70724C8.04347 8.85348 8.00679 9.01179 8 9.17311V21.7157C8.00889 22.0533 8.13911 22.3746 8.3639 22.6133C8.58869 22.8522 8.89101 22.9905 9.2088 23H20.9879C21.2968 22.9854 21.5881 22.8427 21.7992 22.6026C22.0104 22.3626 22.1246 22.0442 22.1173 21.7157V9.17311C22.1199 9.0161 22.0922 8.86019 22.036 8.71495C21.9798 8.56972 21.8962 8.43821 21.7904 8.32848C21.6847 8.21877 21.559 8.13316 21.421 8.07691C21.283 8.02066 21.1356 7.99494 20.9879 8.00135ZM12.4117 20.5065H10.3558V13.8227H12.4117V20.5065ZM11.4323 12.8103C11.2888 12.8156 11.1459 12.7893 11.0124 12.7331C10.879 12.677 10.7579 12.5921 10.6568 12.4838C10.5557 12.3755 10.4768 12.2462 10.425 12.1039C10.3732 11.9617 10.3497 11.8096 10.3558 11.6573C10.3495 11.5032 10.3735 11.3495 10.4264 11.206C10.4792 11.0624 10.5598 10.9321 10.6628 10.8236C10.7658 10.715 10.889 10.6305 11.0246 10.5755C11.1601 10.5205 11.305 10.4963 11.4499 10.5042C11.5934 10.4989 11.7363 10.5252 11.8698 10.5814C12.0032 10.6376 12.1243 10.7225 12.2254 10.8308C12.3265 10.939 12.4054 11.0683 12.4572 11.2106C12.509 11.3528 12.5325 11.5049 12.5264 11.6573C12.5327 11.8113 12.5087 11.965 12.4558 12.1086C12.403 12.2521 12.3224 12.3824 12.2194 12.4909C12.1164 12.5995 11.9932 12.684 11.8576 12.739C11.7221 12.794 11.5772 12.8183 11.4323 12.8103ZM19.7703 20.5065H17.7057V16.8506C17.7057 15.9788 17.4145 15.3788 16.6822 15.3788C16.4547 15.3809 16.2333 15.4577 16.0485 15.5986C15.8637 15.7396 15.7245 15.9379 15.6498 16.1663C15.5925 16.3374 15.5685 16.5192 15.5792 16.7006V20.5065H13.5499V13.8227H15.5792V14.7601C15.7597 14.4079 16.0282 14.1157 16.3552 13.9154C16.6822 13.7153 17.0548 13.6151 17.4321 13.6258C18.7645 13.6258 19.7703 14.5633 19.7703 16.56V20.5065Z" fill="white"/>
</svg>
