<svg width="110" height="110" viewBox="0 0 110 110" fill="none" xmlns="http://www.w3.org/2000/svg">
<g clip-path="url(#clip0_0_1189)">
<path d="M98.6691 19.125H98.0531L97.6148 19.558L71.9688 44.8993V20.625V19.125H70.4688H63.0513H62.4237L61.9831 19.5719L37.5938 44.3096V3.4375V1.9375H36.0938H3.4375H1.9375V3.4375V106.562V108.062H3.4375H106.562H108.062V106.562V20.625V19.125H106.562H98.6691ZM72.9762 57.7857L98.1875 32.8741V98.1875H11.8125V11.8125H27.7188V56.7188V58.2188H29.2188H37.1203H37.7478L38.1884 57.7719L62.0938 33.5251V56.7188V58.2188H63.5938H71.922H72.538L72.9762 57.7857Z" stroke="#0456FB" stroke-width="3"/>
<path d="M29.2188 70.4688V72.1875H36.0938V70.4688V65.3125H29.2188V70.4688Z" fill="#0456FB"/>
<path d="M36.0938 80.7812H29.2188V87.6562H36.0938V80.7812Z" fill="#0456FB"/>
<path d="M46.4062 70.4688V72.1875H53.2812V70.4688V65.3125H46.4062V70.4688Z" fill="#0456FB"/>
<path d="M53.2812 80.7812H46.4062V87.6562H53.2812V80.7812Z" fill="#0456FB"/>
<path d="M63.5938 70.4688V72.1875H70.4688V70.4688V65.3125H63.5938V70.4688Z" fill="#0456FB"/>
<path d="M70.4688 80.7812H63.5938V87.6562H70.4688V80.7812Z" fill="#0456FB"/>
<path d="M87.6562 65.3125H80.7812V72.1875H87.6562V65.3125Z" fill="#0456FB"/>
<path d="M87.6562 80.7812H80.7812V87.6562H87.6562V80.7812Z" fill="#0456FB"/>
</g>
<defs>
<clipPath id="clip0_0_1189">
<rect width="110" height="110" fill="white"/>
</clipPath>
</defs>
</svg>
