<svg width="35" height="35" viewBox="0 0 35 35" fill="none" xmlns="http://www.w3.org/2000/svg">
<circle cx="17.5" cy="17.5" r="16.5" stroke="black" stroke-width="2"/>
<path fill-rule="evenodd" clip-rule="evenodd" d="M24.7304 22.9962C24.2674 24.4032 22.4534 25.1049 21.1574 24.9879C19.3874 24.8279 17.4614 23.8891 15.9993 22.8551C13.8503 21.3351 11.8373 18.9839 10.6643 16.4888C9.83529 14.7258 9.64929 12.5582 10.8823 10.9512C11.3383 10.3572 11.8313 10.04 12.5723 10.003C13.6003 9.95296 13.7443 10.5411 14.0973 11.4571C14.3603 12.1421 14.7113 12.8408 14.9073 13.5508C15.2743 14.8758 13.9913 14.9312 13.8293 16.0142C13.7283 16.6972 14.5563 17.6132 14.9303 18.1002C15.6633 19.0542 16.5443 19.877 17.5384 20.503C18.1074 20.862 19.0264 21.509 19.6784 21.152C20.6824 20.602 20.5874 18.909 21.9914 19.482C22.7184 19.778 23.4224 20.2052 24.1164 20.5792C25.1894 21.1562 25.1394 21.7542 24.7304 22.9962C25.0364 22.0682 24.4244 23.9242 24.7304 22.9962Z" fill="black"/>
</svg>
