<svg width="35" height="35" viewBox="0 0 35 35" fill="none" xmlns="http://www.w3.org/2000/svg">
<circle cx="17.5" cy="17.5" r="16.5" fill="#0456FB" stroke="white" stroke-width="2"/>
<path d="M23.1569 22.4784L23.1299 22.4696C23.1298 22.4694 23.1297 22.4692 23.1296 22.4691L23.1569 22.4784ZM23.1569 22.4784L24.7304 22.9962L24.7297 22.996L23.1575 22.4783C23.1573 22.4783 23.1571 22.4784 23.1569 22.4784ZM12.5336 14.1379C12.3985 14.3131 12.2637 14.5189 12.1477 14.758C11.8968 13.8311 11.9728 13.0001 12.318 12.3963C12.3989 12.5967 12.4857 12.8012 12.5629 12.9832C12.6061 13.0848 12.6462 13.1794 12.6807 13.2624C12.7558 13.4429 12.8191 13.6026 12.8716 13.7482C12.7784 13.8457 12.6563 13.9786 12.5336 14.1379ZM12.3934 12.1113L12.2302 12.1739C12.2304 12.1743 12.2305 12.1747 12.2306 12.175C12.2308 12.1754 12.231 12.1758 12.2311 12.1763L12.3955 12.1129L12.4687 12.1691L12.3934 12.1113ZM12.695 12.0001C12.6949 12.0001 12.6941 12.0001 12.6924 12L12.695 12.0001ZM13.1421 13.4665C13.1421 13.4665 13.141 13.468 13.1385 13.4709C13.1408 13.468 13.142 13.4665 13.1421 13.4665ZM20.6711 22.8883C21.2999 22.5348 21.6881 22.0442 21.9205 21.702C21.9281 21.6908 21.9356 21.6797 21.943 21.6686C22.1292 21.7668 22.323 21.8744 22.5361 21.9928C22.648 22.055 22.7651 22.1201 22.8893 22.1883C22.872 22.2439 22.8527 22.3042 22.831 22.3699C22.8309 22.3702 22.8308 22.3704 22.8308 22.3707L22.8306 22.3711C22.8306 22.3712 22.8306 22.3713 22.8305 22.3714C22.8305 22.3714 22.8305 22.3714 22.8305 22.3714C22.816 22.4152 22.7252 22.5931 22.3619 22.7747C21.9981 22.9566 21.5908 23.0189 21.3372 22.996C21.1229 22.9767 20.8999 22.9401 20.6711 22.8883ZM24.9979 21.8583C24.3841 21.7048 23.7881 21.8088 23.3929 21.9247C23.3922 21.9249 23.3916 21.9251 23.391 21.9253C23.2482 21.9673 23.1317 22.0107 23.0502 22.0441C23.0335 21.9961 23.0214 21.9496 23.0133 21.9061C22.9979 21.8238 22.9997 21.7685 23.0006 21.755C23.0008 21.7528 23.0009 21.7517 23.0009 21.7517L24.9979 21.8583ZM24.461 23.5463C23.9938 23.3902 23.5265 23.0719 23.1394 22.484L24.461 23.5463ZM22.3663 20.9796C22.3757 20.9661 22.3804 20.9604 22.3804 20.9609C22.3805 20.9614 22.3758 20.9682 22.3663 20.9796Z" fill="#0456FB" stroke="white" stroke-width="4"/>
</svg>
