<svg width="48" height="48" viewBox="0 0 48 48" fill="none" xmlns="http://www.w3.org/2000/svg">
<rect width="48" height="48" rx="24" fill="white"/>
<path d="M33.728 31.2942L29.8332 27.3994C29.6574 27.2236 29.4191 27.126 29.1691 27.126H28.5323C29.6105 25.747 30.2512 24.0125 30.2512 22.1256C30.2512 17.637 26.6142 14 22.1256 14C17.637 14 14 17.637 14 22.1256C14 26.6142 17.637 30.2512 22.1256 30.2512C24.0125 30.2512 25.747 29.6105 27.126 28.5323V29.1691C27.126 29.4191 27.2236 29.6574 27.3994 29.8332L31.2942 33.728C31.6614 34.0952 32.2552 34.0952 32.6185 33.728L33.7241 32.6225C34.0913 32.2552 34.0913 31.6615 33.728 31.2942ZM22.1256 27.126C19.3637 27.126 17.1252 24.8914 17.1252 22.1256C17.1252 19.3637 19.3598 17.1252 22.1256 17.1252C24.8875 17.1252 27.126 19.3598 27.126 22.1256C27.126 24.8875 24.8914 27.126 22.1256 27.126Z" fill="black"/>
</svg>
