<svg width="70" height="70" viewBox="0 0 70 70" fill="none" xmlns="http://www.w3.org/2000/svg">
<circle cx="35" cy="35" r="34" fill="white" stroke="#0456FB" stroke-width="2"/>
<path d="M50 22.6237C50 21.961 49.7367 21.3254 49.2681 20.8568C48.7995 20.3882 48.1639 20.1249 47.5012 20.1249L27.5109 20C26.8481 20 26.2126 20.2633 25.744 20.7319C25.2753 21.2005 25.0121 21.8361 25.0121 22.4988C25.0121 23.1615 25.2753 23.7971 25.744 24.2657C26.2126 24.7343 26.8481 24.9976 27.5109 24.9976H41.4042L20.7391 45.7126C20.5049 45.9449 20.319 46.2212 20.1922 46.5257C20.0653 46.8302 20 47.1568 20 47.4867C20 47.8166 20.0653 48.1432 20.1922 48.4477C20.319 48.7522 20.5049 49.0286 20.7391 49.2609C20.9714 49.4951 21.2478 49.681 21.5523 49.8078C21.8568 49.9347 22.1834 50 22.5133 50C22.8432 50 23.1698 49.9347 23.4743 49.8078C23.7788 49.681 24.0551 49.4951 24.2874 49.2609L45.0024 28.5459V42.4891C45.0024 43.1519 45.2657 43.7874 45.7343 44.256C46.2029 44.7247 46.8385 44.9879 47.5012 44.9879C48.1639 44.9879 48.7995 44.7247 49.2681 44.256C49.7367 43.7874 50 43.1519 50 42.4891V22.6237Z" fill="#0456FB"/>
</svg>
