<svg width="135" height="33" viewBox="0 0 135 33" fill="none" xmlns="http://www.w3.org/2000/svg">
<path d="M13.3334 20.9998L20.2534 16.9998L13.3334 12.9998V20.9998ZM28.7467 10.5598C28.92 11.1865 29.04 12.0265 29.12 13.0932C29.2134 14.1598 29.2534 15.0798 29.2534 15.8798L29.3334 16.9998C29.3334 19.9198 29.12 22.0665 28.7467 23.4398C28.4134 24.6398 27.64 25.4132 26.44 25.7465C25.8134 25.9198 24.6667 26.0398 22.9067 26.1198C21.1734 26.2132 19.5867 26.2532 18.12 26.2532L16 26.3332C10.4134 26.3332 6.93335 26.1198 5.56002 25.7465C4.36002 25.4132 3.58669 24.6398 3.25335 23.4398C3.08002 22.8132 2.96002 21.9732 2.88002 20.9065C2.78669 19.8398 2.74669 18.9198 2.74669 18.1198L2.66669 16.9998C2.66669 14.0798 2.88002 11.9332 3.25335 10.5598C3.58669 9.35984 4.36002 8.5865 5.56002 8.25317C6.18669 8.07984 7.33335 7.95984 9.09335 7.87984C10.8267 7.7865 12.4134 7.7465 13.88 7.7465L16 7.6665C21.5867 7.6665 25.0667 7.87984 26.44 8.25317C27.64 8.5865 28.4134 9.35984 28.7467 10.5598Z" fill="black"/>
<path d="M49.584 15.736C50.304 14.536 51.008 13.32 51.696 12.088C52.384 10.856 53.008 9.616 53.568 8.368H56.928C56.032 10.064 55.096 11.752 54.12 13.432C53.16 15.096 52.128 16.776 51.024 18.472V25H48V18.52C46.896 16.808 45.856 15.112 44.88 13.432C43.904 11.752 42.968 10.064 42.072 8.368H45.624C46.184 9.616 46.8 10.856 47.472 12.088C48.144 13.32 48.848 14.536 49.584 15.736ZM68.6613 18.712C68.6613 19.704 68.5173 20.608 68.2293 21.424C67.9413 22.24 67.5333 22.936 67.0053 23.512C66.4773 24.088 65.8373 24.536 65.0853 24.856C64.3493 25.176 63.5333 25.336 62.6373 25.336C61.7413 25.336 60.9253 25.176 60.1893 24.856C59.4533 24.536 58.8213 24.088 58.2933 23.512C57.7653 22.936 57.3493 22.24 57.0453 21.424C56.7573 20.608 56.6133 19.704 56.6133 18.712C56.6133 17.72 56.7573 16.824 57.0453 16.024C57.3493 15.208 57.7653 14.512 58.2933 13.936C58.8373 13.36 59.4773 12.92 60.2133 12.616C60.9493 12.296 61.7573 12.136 62.6373 12.136C63.5173 12.136 64.3253 12.296 65.0613 12.616C65.8133 12.92 66.4533 13.36 66.9813 13.936C67.5093 14.512 67.9173 15.208 68.2053 16.024C68.5093 16.824 68.6613 17.72 68.6613 18.712ZM65.6853 18.712C65.6853 17.464 65.4133 16.48 64.8693 15.76C64.3413 15.024 63.5973 14.656 62.6373 14.656C61.6773 14.656 60.9253 15.024 60.3813 15.76C59.8533 16.48 59.5893 17.464 59.5893 18.712C59.5893 19.976 59.8533 20.976 60.3813 21.712C60.9253 22.448 61.6773 22.816 62.6373 22.816C63.5973 22.816 64.3413 22.448 64.8693 21.712C65.4133 20.976 65.6853 19.976 65.6853 18.712ZM81.629 24.616C81.069 24.76 80.341 24.904 79.445 25.048C78.549 25.208 77.565 25.288 76.493 25.288C75.485 25.288 74.637 25.144 73.949 24.856C73.277 24.568 72.733 24.168 72.317 23.656C71.917 23.144 71.629 22.536 71.453 21.832C71.277 21.112 71.189 20.328 71.189 19.48V12.448H74.093V19.024C74.093 20.368 74.285 21.328 74.669 21.904C75.069 22.48 75.757 22.768 76.733 22.768C77.085 22.768 77.453 22.752 77.837 22.72C78.237 22.688 78.533 22.648 78.725 22.6V12.448H81.629V24.616ZM84.8612 9.136L87.7652 8.656V12.448H92.2292V14.872H87.7652V19.984C87.7652 20.992 87.9252 21.712 88.2452 22.144C88.5652 22.576 89.1092 22.792 89.8772 22.792C90.4052 22.792 90.8692 22.736 91.2692 22.624C91.6852 22.512 92.0132 22.408 92.2532 22.312L92.7332 24.616C92.3972 24.76 91.9572 24.904 91.4132 25.048C90.8692 25.208 90.2292 25.288 89.4932 25.288C88.5972 25.288 87.8452 25.168 87.2372 24.928C86.6452 24.688 86.1732 24.344 85.8212 23.896C85.4692 23.432 85.2212 22.88 85.0772 22.24C84.9332 21.584 84.8612 20.84 84.8612 20.008V9.136ZM105.012 24.616C104.452 24.76 103.724 24.904 102.828 25.048C101.932 25.208 100.948 25.288 99.8764 25.288C98.8684 25.288 98.0204 25.144 97.3324 24.856C96.6604 24.568 96.1164 24.168 95.7004 23.656C95.3004 23.144 95.0124 22.536 94.8364 21.832C94.6604 21.112 94.5724 20.328 94.5724 19.48V12.448H97.4764V19.024C97.4764 20.368 97.6684 21.328 98.0524 21.904C98.4524 22.48 99.1404 22.768 100.116 22.768C100.468 22.768 100.836 22.752 101.22 22.72C101.62 22.688 101.916 22.648 102.108 22.6V12.448H105.012V24.616ZM116.717 18.688C116.717 17.456 116.469 16.48 115.973 15.76C115.493 15.04 114.725 14.68 113.669 14.68C113.189 14.68 112.733 14.752 112.301 14.896C111.885 15.04 111.549 15.2 111.293 15.376V22.6C111.501 22.648 111.765 22.696 112.085 22.744C112.421 22.776 112.821 22.792 113.285 22.792C114.357 22.792 115.197 22.432 115.805 21.712C116.413 20.976 116.717 19.968 116.717 18.688ZM119.693 18.736C119.693 19.744 119.541 20.656 119.237 21.472C118.949 22.272 118.525 22.96 117.965 23.536C117.421 24.112 116.757 24.552 115.973 24.856C115.189 25.16 114.301 25.312 113.309 25.312C112.349 25.312 111.429 25.24 110.549 25.096C109.685 24.952 108.965 24.792 108.389 24.616V6.856L111.293 6.376V12.88C111.629 12.704 112.037 12.544 112.517 12.4C113.013 12.256 113.557 12.184 114.149 12.184C115.029 12.184 115.813 12.344 116.501 12.664C117.205 12.968 117.789 13.408 118.253 13.984C118.717 14.56 119.069 15.256 119.309 16.072C119.565 16.872 119.693 17.76 119.693 18.736ZM121.67 18.784C121.67 17.68 121.83 16.712 122.15 15.88C122.486 15.048 122.926 14.36 123.47 13.816C124.014 13.256 124.638 12.84 125.342 12.568C126.046 12.28 126.766 12.136 127.502 12.136C129.23 12.136 130.574 12.672 131.534 13.744C132.51 14.816 132.998 16.416 132.998 18.544C132.998 18.704 132.99 18.888 132.974 19.096C132.974 19.288 132.966 19.464 132.95 19.624H124.67C124.75 20.632 125.102 21.416 125.726 21.976C126.366 22.52 127.286 22.792 128.486 22.792C129.19 22.792 129.83 22.728 130.406 22.6C130.998 22.472 131.462 22.336 131.798 22.192L132.182 24.568C132.022 24.648 131.798 24.736 131.51 24.832C131.238 24.912 130.918 24.984 130.55 25.048C130.198 25.128 129.814 25.192 129.398 25.24C128.982 25.288 128.558 25.312 128.126 25.312C127.022 25.312 126.062 25.152 125.246 24.832C124.43 24.496 123.758 24.04 123.23 23.464C122.702 22.872 122.31 22.184 122.054 21.4C121.798 20.6 121.67 19.728 121.67 18.784ZM130.094 17.488C130.094 17.088 130.038 16.712 129.926 16.36C129.814 15.992 129.646 15.68 129.422 15.424C129.214 15.152 128.95 14.944 128.63 14.8C128.326 14.64 127.958 14.56 127.526 14.56C127.078 14.56 126.686 14.648 126.35 14.824C126.014 14.984 125.726 15.2 125.486 15.472C125.262 15.744 125.086 16.056 124.958 16.408C124.83 16.76 124.742 17.12 124.694 17.488H130.094Z" fill="#121212"/>
</svg>
