<svg width="30" height="30" viewBox="0 0 30 30" fill="none" xmlns="http://www.w3.org/2000/svg">
<circle cx="15" cy="15" r="15" fill="#0456FB"/>
<path d="M12.8 17.5714L17.2115 15L12.8 12.4286V17.5714ZM22.626 10.86C22.7365 11.2629 22.813 11.8029 22.864 12.4886C22.9235 13.1743 22.949 13.7657 22.949 14.28L23 15C23 16.8771 22.864 18.2571 22.626 19.14C22.4135 19.9114 21.9205 20.4086 21.1555 20.6229C20.756 20.7343 20.025 20.8114 18.903 20.8629C17.798 20.9229 16.7865 20.9486 15.8515 20.9486L14.5 21C10.9385 21 8.72 20.8629 7.8445 20.6229C7.0795 20.4086 6.5865 19.9114 6.374 19.14C6.2635 18.7371 6.187 18.1971 6.136 17.5114C6.0765 16.8257 6.051 16.2343 6.051 15.72L6 15C6 13.1229 6.136 11.7429 6.374 10.86C6.5865 10.0886 7.0795 9.59143 7.8445 9.37714C8.244 9.26571 8.975 9.18857 10.097 9.13714C11.202 9.07714 12.2135 9.05143 13.1485 9.05143L14.5 9C18.0615 9 20.28 9.13714 21.1555 9.37714C21.9205 9.59143 22.4135 10.0886 22.626 10.86Z" fill="white"/>
</svg>
