<svg width="116" height="104" viewBox="0 0 116 104" fill="none" xmlns="http://www.w3.org/2000/svg">
<path d="M76.125 68.25H14.5C6.525 68.25 0 74.1 0 81.25C0 88.4 6.525 94.25 14.5 94.25H76.125C84.1 94.25 90.625 88.4 90.625 81.25C90.625 74.1 84.1 68.25 76.125 68.25ZM21.3875 82.55C21.025 82.875 21.025 83.2 20.6625 83.525C19.9375 84.175 19.2125 84.5 18.125 84.5C17.0375 84.5 16.3125 84.175 15.5875 83.525C15.225 83.2 14.8625 82.875 14.8625 82.55C14.5 82.225 14.5 81.575 14.5 81.25C14.5 80.275 14.8625 79.625 15.5875 78.975C15.95 78.65 16.3125 78.325 16.675 78.325C18.125 77.675 19.575 78 20.6625 78.975C21.3875 79.625 21.75 80.275 21.75 81.25C21.75 81.575 21.75 82.225 21.3875 82.55ZM46.7625 82.55C46.4 82.875 46.4 83.2 46.0375 83.525C45.675 83.85 45.3125 84.175 44.95 84.175C44.5875 84.5 43.8625 84.5 43.5 84.5C42.4125 84.5 41.6875 84.175 40.9625 83.525C40.6 83.2 40.2375 82.875 40.2375 82.55C40.2375 82.225 39.875 81.575 39.875 81.25C39.875 80.275 40.2375 79.625 40.9625 78.975C42.05 78 43.5 77.675 44.95 78.325C45.3125 78.65 45.675 78.65 46.0375 78.975C46.7625 79.625 47.125 80.275 47.125 81.25C47.125 81.575 47.125 82.225 46.7625 82.55ZM72.1375 82.55C71.775 82.875 71.775 83.2 71.4125 83.525C70.6875 84.175 69.9625 84.5 68.875 84.5C67.7875 84.5 67.0625 84.175 66.3375 83.525C65.975 83.2 65.6125 82.875 65.6125 82.55C65.6125 82.225 65.25 81.575 65.25 81.25C65.25 80.275 65.6125 79.625 66.3375 78.975C67.7875 77.675 69.9625 77.675 71.4125 78.975C72.1375 79.625 72.5 80.275 72.5 81.25C72.5 81.575 72.5 82.225 72.1375 82.55Z" fill="#0456FB"/>
<path d="M115.275 82.55L97.875 60.775V35.75C97.875 33.8 96.425 32.5 94.25 32.5C92.075 32.5 90.625 33.8 90.625 35.75V56.55L83.375 53.3V48.75V48.425C83.375 48.425 83.375 48.425 83.375 48.1L77.2125 14.625C76.125 10.075 71.775 6.5 66.3375 6.5H47.125C40.9625 6.5 36.25 10.725 36.25 16.25V32.5H21.75V26C21.75 24.05 20.3 22.75 18.125 22.75C15.95 22.75 14.5 24.05 14.5 26V33.15C10.15 34.45 7.25 38.025 7.25 42.25V55.25C7.25 60.775 11.9625 65 18.125 65H72.5C76.4875 65 80.1125 63.05 81.925 59.8L91.7125 64.35L109.475 86.45C110.2 87.425 111.287 87.75 112.375 87.75C113.1 87.75 113.825 87.425 114.55 87.1C116 86.125 116.362 84.175 115.275 82.55ZM39.875 52H25.375C23.2 52 21.75 50.7 21.75 48.75C21.75 46.8 23.2 45.5 25.375 45.5H39.875C42.05 45.5 43.5 46.8 43.5 48.75C43.5 50.7 42.05 52 39.875 52ZM43.5 33.475V16.25C43.5 14.3 44.95 13 47.125 13H66.3375C68.15 13 69.6 14.3 69.9625 15.6L75.0375 43.55L43.5 33.475Z" fill="#0456FB"/>
</svg>
