<svg width="365" height="314" viewBox="0 0 365 314" fill="none" xmlns="http://www.w3.org/2000/svg">
<g clip-path="url(#clip0_33_107)">
<path d="M66.9169 193.633H42.5831C39.2254 193.633 36.5 195.972 36.5 198.866V230.266C36.5 233.16 39.2254 235.499 42.5831 235.499H66.9162C70.2739 235.499 72.9993 233.16 72.9993 230.266V198.866C73 195.973 70.2746 193.633 66.9169 193.633Z" fill="white" fill-opacity="0.3" stroke="white" stroke-opacity="0.3" stroke-width="0.390625"/>
<path d="M66.9169 251.2H42.5831C39.2254 251.2 36.5 253.539 36.5 256.433V287.833C36.5 290.727 39.2254 293.066 42.5831 293.066H66.9162C70.2739 293.066 72.9993 290.727 72.9993 287.833V256.433C73 253.539 70.2746 251.2 66.9169 251.2Z" fill="white" fill-opacity="0.3" stroke="white" stroke-opacity="0.3" stroke-width="0.390625"/>
<path d="M54.7501 47.1C58.1078 47.1 60.8332 44.7609 60.8332 41.8669C60.8332 36.0947 66.2897 31.4 73.0001 31.4H91.2501C101.312 31.4 109.5 24.3559 109.5 15.7C109.5 7.04415 101.312 0 91.2501 0H73.0001C69.6424 0 66.917 2.33905 66.917 5.23313C66.917 8.1272 69.6424 10.4663 73.0001 10.4663H91.2501C94.6021 10.4663 97.3332 12.8108 97.3332 15.6994C97.3332 18.5879 94.6021 20.9325 91.2501 20.9325H73.0001C59.5799 20.9325 48.667 30.3212 48.667 41.8656C48.667 44.7609 51.3924 47.1 54.7501 47.1Z" fill="white" fill-opacity="0.3" stroke="white" stroke-opacity="0.3" stroke-width="0.390625"/>
<path d="M356.185 142.164C354.476 141.195 352.31 141.028 350.436 141.724L273.75 170V146.534C273.75 144.775 272.722 143.137 271.012 142.164C269.315 141.191 267.149 141.023 265.27 141.724L188.584 170V146.534C188.584 144.776 187.556 143.138 185.846 142.165C184.149 141.191 181.983 141.024 180.104 141.725L96.0862 172.7H79.083V88.9669H85.1661C88.5238 88.9669 91.2492 86.6278 91.2492 83.7338V62.8C91.2492 59.906 88.5238 57.5669 85.1661 57.5669H24.333C20.9753 57.5669 18.2499 59.906 18.2499 62.8V83.7332C18.2499 86.6272 20.9753 88.9663 24.333 88.9663H30.4161V172.7H12.1661C8.80839 172.7 6.08301 175.039 6.08301 177.933V308.766C6.08301 311.66 8.80839 313.999 12.1661 313.999H97.333H182.5H267.667H352.834C356.198 313.999 358.917 311.66 358.917 308.766V146.533C358.917 144.775 357.889 143.137 356.185 142.164ZM91.2499 303.533H18.2499V183.167H36.4999H72.9999H91.2499V303.533ZM152.083 287.833H127.75C124.392 287.833 121.667 285.494 121.667 282.6C121.667 279.706 124.392 277.367 127.75 277.367H152.083C155.441 277.367 158.166 279.706 158.166 282.6C158.167 285.494 155.441 287.833 152.083 287.833ZM152.083 266.9H127.75C124.392 266.9 121.667 264.561 121.667 261.667C121.667 258.773 124.392 256.434 127.75 256.434H152.083C155.441 256.434 158.166 258.773 158.166 261.667C158.166 264.561 155.441 266.9 152.083 266.9ZM152.083 245.967H127.75C124.392 245.967 121.667 243.628 121.667 240.734C121.667 237.84 124.392 235.501 127.75 235.501H152.083C155.441 235.501 158.166 237.84 158.166 240.734C158.167 243.627 155.441 245.967 152.083 245.967ZM152.083 225.033H127.75C124.392 225.033 121.667 222.694 121.667 219.8C121.667 216.906 124.392 214.567 127.75 214.567H152.083C155.441 214.567 158.166 216.906 158.166 219.8C158.166 222.694 155.441 225.033 152.083 225.033ZM152.083 204.1H127.75C124.392 204.1 121.667 201.761 121.667 198.867C121.667 195.973 124.392 193.634 127.75 193.634H152.083C155.441 193.634 158.166 195.973 158.166 198.867C158.167 201.761 155.441 204.1 152.083 204.1ZM237.25 287.833H212.917C209.559 287.833 206.834 285.494 206.834 282.6C206.834 279.706 209.559 277.367 212.917 277.367H237.25C240.608 277.367 243.333 279.706 243.333 282.6C243.333 285.494 240.608 287.833 237.25 287.833ZM237.25 266.9H212.917C209.559 266.9 206.834 264.561 206.834 261.667C206.834 258.773 209.559 256.434 212.917 256.434H237.25C240.608 256.434 243.333 258.773 243.333 261.667C243.333 264.561 240.608 266.9 237.25 266.9ZM237.25 245.967H212.917C209.559 245.967 206.834 243.628 206.834 240.734C206.834 237.84 209.559 235.501 212.917 235.501H237.25C240.608 235.501 243.333 237.84 243.333 240.734C243.333 243.627 240.608 245.967 237.25 245.967ZM237.25 225.033H212.917C209.559 225.033 206.834 222.694 206.834 219.8C206.834 216.906 209.559 214.567 212.917 214.567H237.25C240.608 214.567 243.333 216.906 243.333 219.8C243.333 222.694 240.608 225.033 237.25 225.033ZM237.25 204.1H212.917C209.559 204.1 206.834 201.761 206.834 198.867C206.834 195.973 209.559 193.634 212.917 193.634H237.25C240.608 193.634 243.333 195.973 243.333 198.867C243.333 201.761 240.608 204.1 237.25 204.1ZM322.417 287.833H298.084C294.72 287.833 292.001 285.494 292.001 282.6C292.001 279.706 294.72 277.367 298.084 277.367H322.417C325.781 277.367 328.5 279.706 328.5 282.6C328.5 285.494 325.781 287.833 322.417 287.833ZM322.417 266.9H298.084C294.72 266.9 292.001 264.561 292.001 261.667C292.001 258.773 294.72 256.434 298.084 256.434H322.417C325.781 256.434 328.5 258.773 328.5 261.667C328.5 264.561 325.781 266.9 322.417 266.9ZM322.417 245.967H298.084C294.72 245.967 292.001 243.628 292.001 240.734C292.001 237.84 294.72 235.501 298.084 235.501H322.417C325.781 235.501 328.5 237.84 328.5 240.734C328.5 243.627 325.781 245.967 322.417 245.967ZM322.417 225.033H298.084C294.72 225.033 292.001 222.694 292.001 219.8C292.001 216.906 294.72 214.567 298.084 214.567H322.417C325.781 214.567 328.5 216.906 328.5 219.8C328.5 222.694 325.781 225.033 322.417 225.033ZM322.417 204.1H298.084C294.72 204.1 292.001 201.761 292.001 198.867C292.001 195.973 294.72 193.634 298.084 193.634H322.417C325.781 193.634 328.5 195.973 328.5 198.867C328.5 201.761 325.781 204.1 322.417 204.1Z" fill="white" fill-opacity="0.3" stroke="white" stroke-opacity="0.3" stroke-width="0.390625"/>
</g>
<defs>
<clipPath id="clip0_33_107">
<rect width="365" height="314" fill="white"/>
</clipPath>
</defs>
</svg>
