<svg width="130" height="33" viewBox="0 0 130 33" fill="none" xmlns="http://www.w3.org/2000/svg">
<path d="M24.8394 2.0026H2.31182C2.02146 1.98801 1.73125 2.03497 1.45783 2.14079C1.18441 2.24662 0.93315 2.40923 0.718403 2.61929C0.503674 2.82937 0.32968 3.08281 0.206411 3.36506C0.0831415 3.64734 0.0129935 3.9529 0 4.26427V28.4732C0.0170096 29.1248 0.266045 29.7448 0.695959 30.2057C1.12587 30.6667 1.70407 30.9337 2.31182 30.952H24.8394C25.4302 30.9238 25.9872 30.6484 26.391 30.185C26.7949 29.7217 27.0132 29.1072 26.9994 28.4732V4.26427C27.0043 3.9612 26.9513 3.66029 26.8438 3.37995C26.7363 3.09963 26.5765 2.8458 26.3742 2.63402C26.172 2.42225 25.9316 2.25703 25.6676 2.14845C25.4037 2.03987 25.1219 1.99024 24.8394 2.0026ZM8.43731 26.1392H4.50552V13.2386H8.43731V26.1392ZM6.56422 11.2845C6.28986 11.2947 6.01647 11.2441 5.76126 11.1356C5.50603 11.0271 5.27448 10.8633 5.08116 10.6543C4.88783 10.4453 4.73689 10.1957 4.63784 9.92115C4.53876 9.64662 4.49373 9.3531 4.50552 9.05901C4.49339 8.76173 4.53934 8.46504 4.64043 8.18794C4.74153 7.91082 4.89553 7.65943 5.09254 7.44989C5.28957 7.24033 5.52525 7.07726 5.7845 6.97112C6.04376 6.86497 6.32084 6.81811 6.59797 6.83352C6.87234 6.82328 7.14572 6.87396 7.40094 6.98241C7.65616 7.09086 7.88772 7.25474 8.08103 7.46373C8.27436 7.67273 8.42531 7.92233 8.52436 8.19686C8.62343 8.47139 8.66847 8.76492 8.65668 9.05901C8.66881 9.35628 8.62286 9.65297 8.52176 9.93007C8.42067 10.2072 8.26667 10.4586 8.06966 10.6681C7.87263 10.8777 7.63694 11.0408 7.3777 11.1469C7.11844 11.253 6.84136 11.2999 6.56422 11.2845ZM22.5107 26.1392H18.5621V19.0828C18.5621 17.4001 18.0052 16.2421 16.6046 16.2421C16.1696 16.2461 15.7462 16.3943 15.3929 16.6664C15.0393 16.9385 14.773 17.3212 14.6303 17.762C14.5206 18.0923 14.4747 18.4432 14.4953 18.7933V26.1392H10.6141V13.2386H14.4953V15.048C14.8404 14.3682 15.3539 13.804 15.9792 13.4176C16.6046 13.0313 17.3174 12.8378 18.039 12.8586C20.587 12.8586 22.5107 14.668 22.5107 18.5219V26.1392Z" fill="black"/>
<path d="M49.504 22.384V25H38.992V8.368H42.016V22.384H49.504ZM54.2763 25H51.3723V12.448H54.2763V25ZM54.5883 8.776C54.5883 9.32 54.4123 9.752 54.0603 10.072C53.7083 10.392 53.2923 10.552 52.8123 10.552C52.3163 10.552 51.8923 10.392 51.5403 10.072C51.1883 9.752 51.0123 9.32 51.0123 8.776C51.0123 8.216 51.1883 7.776 51.5403 7.456C51.8923 7.136 52.3163 6.976 52.8123 6.976C53.2923 6.976 53.7083 7.136 54.0603 7.456C54.4123 7.776 54.5883 8.216 54.5883 8.776ZM57.6611 12.856C58.2211 12.696 58.9491 12.544 59.8451 12.4C60.7411 12.256 61.7331 12.184 62.8211 12.184C63.8451 12.184 64.7011 12.328 65.3891 12.616C66.0771 12.888 66.6211 13.28 67.0211 13.792C67.4371 14.288 67.7251 14.896 67.8851 15.616C68.0611 16.32 68.1491 17.096 68.1491 17.944V25H65.2451V18.4C65.2451 17.728 65.1971 17.16 65.1011 16.696C65.0211 16.216 64.8771 15.832 64.6691 15.544C64.4771 15.24 64.2051 15.024 63.8531 14.896C63.5171 14.752 63.1011 14.68 62.6051 14.68C62.2371 14.68 61.8531 14.704 61.4531 14.752C61.0531 14.8 60.7571 14.84 60.5651 14.872V25H57.6611V12.856ZM74.2842 17.344C74.6522 16.96 75.0442 16.552 75.4602 16.12C75.8762 15.672 76.2842 15.232 76.6842 14.8C77.0842 14.352 77.4602 13.928 77.8122 13.528C78.1802 13.112 78.4922 12.752 78.7482 12.448H82.1802C81.3802 13.344 80.5322 14.272 79.6362 15.232C78.7562 16.192 77.8682 17.128 76.9722 18.04C77.4522 18.44 77.9562 18.928 78.4842 19.504C79.0122 20.064 79.5242 20.664 80.0202 21.304C80.5162 21.944 80.9802 22.584 81.4122 23.224C81.8442 23.864 82.2042 24.456 82.4922 25H79.1322C78.8442 24.504 78.5082 23.984 78.1242 23.44C77.7562 22.896 77.3562 22.368 76.9242 21.856C76.4922 21.344 76.0522 20.864 75.6042 20.416C75.1562 19.952 74.7162 19.56 74.2842 19.24V25H71.3802V6.856L74.2842 6.376V17.344ZM83.0204 18.784C83.0204 17.68 83.1804 16.712 83.5004 15.88C83.8364 15.048 84.2764 14.36 84.8204 13.816C85.3644 13.256 85.9884 12.84 86.6924 12.568C87.3964 12.28 88.1164 12.136 88.8524 12.136C90.5804 12.136 91.9244 12.672 92.8844 13.744C93.8604 14.816 94.3484 16.416 94.3484 18.544C94.3484 18.704 94.3404 18.888 94.3244 19.096C94.3244 19.288 94.3164 19.464 94.3004 19.624H86.0204C86.1004 20.632 86.4524 21.416 87.0764 21.976C87.7164 22.52 88.6364 22.792 89.8364 22.792C90.5404 22.792 91.1804 22.728 91.7564 22.6C92.3484 22.472 92.8124 22.336 93.1484 22.192L93.5324 24.568C93.3724 24.648 93.1484 24.736 92.8604 24.832C92.5884 24.912 92.2684 24.984 91.9004 25.048C91.5484 25.128 91.1644 25.192 90.7484 25.24C90.3324 25.288 89.9084 25.312 89.4764 25.312C88.3724 25.312 87.4124 25.152 86.5964 24.832C85.7804 24.496 85.1084 24.04 84.5804 23.464C84.0524 22.872 83.6604 22.184 83.4044 21.4C83.1484 20.6 83.0204 19.728 83.0204 18.784ZM91.4444 17.488C91.4444 17.088 91.3884 16.712 91.2764 16.36C91.1644 15.992 90.9964 15.68 90.7724 15.424C90.5644 15.152 90.3004 14.944 89.9804 14.8C89.6764 14.64 89.3084 14.56 88.8764 14.56C88.4284 14.56 88.0364 14.648 87.7004 14.824C87.3644 14.984 87.0764 15.2 86.8364 15.472C86.6124 15.744 86.4364 16.056 86.3084 16.408C86.1804 16.76 86.0924 17.12 86.0444 17.488H91.4444ZM99.3874 18.688C99.3874 19.968 99.6914 20.976 100.299 21.712C100.907 22.432 101.747 22.792 102.819 22.792C103.283 22.792 103.675 22.776 103.995 22.744C104.331 22.696 104.603 22.648 104.811 22.6V15.4C104.555 15.224 104.211 15.064 103.779 14.92C103.363 14.76 102.915 14.68 102.435 14.68C101.379 14.68 100.603 15.04 100.107 15.76C99.6274 16.48 99.3874 17.456 99.3874 18.688ZM107.715 24.616C107.139 24.792 106.411 24.952 105.531 25.096C104.667 25.24 103.755 25.312 102.795 25.312C101.803 25.312 100.915 25.16 100.131 24.856C99.3474 24.552 98.6754 24.12 98.1154 23.56C97.5714 22.984 97.1474 22.296 96.8434 21.496C96.5554 20.68 96.4114 19.768 96.4114 18.76C96.4114 17.768 96.5314 16.872 96.7714 16.072C97.0274 15.256 97.3954 14.56 97.8754 13.984C98.3554 13.408 98.9394 12.968 99.6274 12.664C100.315 12.344 101.107 12.184 102.003 12.184C102.611 12.184 103.147 12.256 103.611 12.4C104.075 12.544 104.475 12.704 104.811 12.88V6.856L107.715 6.376V24.616ZM111.228 8.368H114.252V25H111.228V8.368ZM117.772 12.856C118.332 12.696 119.06 12.544 119.956 12.4C120.852 12.256 121.844 12.184 122.932 12.184C123.956 12.184 124.812 12.328 125.5 12.616C126.188 12.888 126.732 13.28 127.132 13.792C127.548 14.288 127.836 14.896 127.996 15.616C128.172 16.32 128.26 17.096 128.26 17.944V25H125.356V18.4C125.356 17.728 125.308 17.16 125.212 16.696C125.132 16.216 124.988 15.832 124.78 15.544C124.588 15.24 124.316 15.024 123.964 14.896C123.628 14.752 123.212 14.68 122.716 14.68C122.348 14.68 121.964 14.704 121.564 14.752C121.164 14.8 120.868 14.84 120.676 14.872V25H117.772V12.856Z" fill="#121212"/>
</svg>
