<svg width="110" height="110" viewBox="0 0 110 110" fill="none" xmlns="http://www.w3.org/2000/svg">
<path d="M72.4062 24.0625C72.4062 24.1833 72.3083 24.2812 72.1875 24.2812C72.0667 24.2812 71.9688 24.1833 71.9688 24.0625C71.9688 23.9417 72.0667 23.8438 72.1875 23.8438C72.3083 23.8438 72.4062 23.9417 72.4062 24.0625Z" fill="#0456FB" stroke="#0456FB" stroke-width="3"/>
<path d="M86.1562 41.25C86.1562 41.3708 86.0583 41.4688 85.9375 41.4688C85.8167 41.4688 85.7188 41.3708 85.7188 41.25C85.7188 41.1292 85.8167 41.0312 85.9375 41.0312C86.0583 41.0312 86.1562 41.1292 86.1562 41.25Z" fill="#0456FB" stroke="#0456FB" stroke-width="3"/>
<path d="M91.9531 27.5C94.3262 27.5 96.25 25.5762 96.25 23.2031C96.25 20.83 94.3262 18.9062 91.9531 18.9062C89.58 18.9062 87.6562 20.83 87.6562 23.2031C87.6562 25.5762 89.58 27.5 91.9531 27.5Z" fill="#0456FB" stroke="#0456FB" stroke-width="3" stroke-linecap="round" stroke-linejoin="round"/>
<path d="M58.4375 5.15625V8.59375" stroke="#0456FB" stroke-width="3" stroke-linecap="round" stroke-linejoin="round"/>
<path d="M58.4375 15.4688V18.9062" stroke="#0456FB" stroke-width="3" stroke-linecap="round" stroke-linejoin="round"/>
<path d="M51.5625 12.0312H55" stroke="#0456FB" stroke-width="3" stroke-linecap="round" stroke-linejoin="round"/>
<path d="M61.875 12.0312H65.3125" stroke="#0456FB" stroke-width="3" stroke-linecap="round" stroke-linejoin="round"/>
<path d="M43.209 97.9394L48.6471 55.1924" stroke="#0456FB" stroke-width="3" stroke-linecap="round" stroke-linejoin="round"/>
<path d="M62.6197 97.9911L57.4102 55.2148" stroke="#0456FB" stroke-width="3" stroke-linecap="round" stroke-linejoin="round"/>
<path d="M46.166 89.5107L60.5966 89.5486" stroke="#0456FB" stroke-width="3" stroke-linecap="round" stroke-linejoin="round"/>
<path d="M45.1619 41.5199L30.3806 34.4575" stroke="#0456FB" stroke-width="3" stroke-linecap="round" stroke-linejoin="round"/>
<path d="M61.4315 43.5789L97.2244 60.6718C97.7733 60.934 98.2118 61.3819 98.4624 61.9362C98.713 62.4905 98.7595 63.1156 98.5936 63.7009C98.4278 64.2862 98.0604 64.794 97.5563 65.1345C97.0522 65.475 96.444 65.6263 95.8391 65.5617C95.5488 65.5301 95.2658 65.4499 95.0021 65.3245L58.9685 48.1146" fill="#0456FB"/>
<path d="M61.4315 43.5789L97.2244 60.6718C97.7733 60.934 98.2118 61.3819 98.4624 61.9362C98.713 62.4905 98.7595 63.1156 98.5936 63.7009C98.4278 64.2862 98.0604 64.794 97.5563 65.1345C97.0522 65.475 96.444 65.6263 95.8391 65.5617C95.5488 65.5301 95.2658 65.4499 95.0021 65.3245L58.9685 48.1146" stroke="#0456FB" stroke-width="3" stroke-linecap="round" stroke-linejoin="round"/>
<path d="M36.6045 31.7195L47.1989 36.7795" stroke="#0456FB" stroke-width="3" stroke-linecap="round" stroke-linejoin="round"/>
<path d="M53.3174 49.842C57.589 49.842 61.0518 46.3792 61.0518 42.1077C61.0518 37.8361 57.589 34.3733 53.3174 34.3733C49.0458 34.3733 45.583 37.8361 45.583 42.1077C45.583 46.3792 49.0458 49.842 53.3174 49.842Z" fill="#0456FB" stroke="#0456FB" stroke-width="3" stroke-linecap="round" stroke-linejoin="round"/>
<path d="M47.7881 72.1704L58.6867 72.1996" stroke="#0456FB" stroke-width="3" stroke-linecap="round" stroke-linejoin="round"/>
<path d="M61.8896 49.8645L44.7021 49.8186L44.6884 54.9748L61.8758 55.0207L61.8896 49.8645Z" fill="#0456FB" stroke="#0456FB" stroke-width="3" stroke-linecap="round" stroke-linejoin="round"/>
<path d="M89.375 63.5938V79.0625" stroke="#0456FB" stroke-width="3" stroke-linecap="round" stroke-linejoin="round"/>
<path d="M77.3438 89.375H101.406" stroke="#0456FB" stroke-width="3" stroke-linejoin="round"/>
<path d="M101.406 97.3741V89.375V80.7812H77.3438V89.375V97.4136" fill="#0456FB"/>
<path d="M101.406 97.3741V89.375V80.7812H77.3438V89.375V97.4136" stroke="#0456FB" stroke-width="3" stroke-linecap="round" stroke-linejoin="round"/>
<path d="M12.0312 108.281V97.9688H3.4375" fill="#0456FB"/>
<path d="M12.0312 108.281V97.9688H3.4375" stroke="#0456FB" stroke-width="3" stroke-linecap="round" stroke-linejoin="round"/>
<path d="M106.562 97.9688H29.2188V108.281" fill="#0456FB"/>
<path d="M106.562 97.9688H29.2188V108.281" stroke="#0456FB" stroke-width="3" stroke-linecap="round" stroke-linejoin="round"/>
<path d="M20.625 94.5312V42.9688" stroke="#0456FB" stroke-width="3" stroke-linecap="round" stroke-linejoin="round"/>
<path d="M20.625 15.4688H36.0938V34.375H5.15625V30.9375C5.15625 26.8349 6.78599 22.9004 9.68694 19.9994C12.5879 17.0985 16.5224 15.4688 20.625 15.4688Z" fill="#0456FB" stroke="#0456FB" stroke-width="3" stroke-linecap="round" stroke-linejoin="round"/>
<path d="M29.2188 17.1875V24.0625" stroke="#0456FB" stroke-width="3" stroke-linecap="round" stroke-linejoin="round"/>
<path d="M18.9062 17.1875V24.0625" stroke="#0456FB" stroke-width="3" stroke-linecap="round" stroke-linejoin="round"/>
<path d="M25.7812 34.9077V37.8124C25.7812 39.1799 25.238 40.4914 24.271 41.4584C23.304 42.4254 21.9925 42.9687 20.625 42.9687C19.2575 42.9687 17.946 42.4254 16.979 41.4584C16.012 40.4914 15.4688 39.1799 15.4688 37.8124V34.863" fill="#0456FB"/>
<path d="M25.7812 34.9077V37.8124C25.7812 39.1799 25.238 40.4914 24.271 41.4584C23.304 42.4254 21.9925 42.9687 20.625 42.9687C19.2575 42.9687 17.946 42.4254 16.979 41.4584C16.012 40.4914 15.4688 39.1799 15.4688 37.8124V34.863" stroke="#0456FB" stroke-width="3" stroke-linecap="square" stroke-linejoin="round"/>
<path d="M36.0938 25.7812H6.875" stroke="#0456FB" stroke-width="3" stroke-linejoin="round"/>
</svg>
