<svg width="157" height="33" viewBox="0 0 157 33" fill="none" xmlns="http://www.w3.org/2000/svg">
<path fill-rule="evenodd" clip-rule="evenodd" d="M26.1047 23.2998C25.707 24.4254 24.1263 25.3566 22.8657 25.629C22.0028 25.8122 20.8774 25.9571 17.0857 24.3858C12.8271 22.6215 6.9135 16.3366 6.9135 12.1542C6.9135 10.0251 8.1411 7.54585 10.2878 7.54585C11.3207 7.54585 11.5484 7.56599 11.8883 8.38132C12.2859 9.34192 13.2561 11.7086 13.3716 11.9512C13.8485 12.9465 12.8865 13.5291 12.1885 14.3956C11.9658 14.6564 11.7134 14.9384 11.9955 15.4236C12.276 15.899 13.2462 17.4802 14.6718 18.7494C16.5132 20.39 18.0064 20.9138 18.541 21.1366C18.9387 21.3016 19.4139 21.2632 19.7043 20.9529C20.0723 20.5551 20.5293 19.8952 20.9946 19.2449C21.3229 18.7794 21.7404 18.7213 22.1777 18.8864C22.473 18.9887 26.2267 20.732 26.3851 21.0109C26.5023 21.2139 26.5023 22.1742 26.1047 23.2998ZM16.5033 0H16.495C7.39859 0 0 7.40083 0 16.5C0 20.108 1.16326 23.4553 3.14161 26.1704L1.08571 32.3015L7.42666 30.2752C10.0353 32.0017 13.1488 33 16.5033 33C25.5997 33 33 25.5992 33 16.5C33 7.40083 25.5997 0 16.5033 0Z" fill="black"/>
<path d="M55.648 10.24C55.904 11.104 56.176 12.008 56.464 12.952C56.752 13.88 57.048 14.816 57.352 15.76C57.672 16.688 57.984 17.608 58.288 18.52C58.608 19.416 58.912 20.264 59.2 21.064C59.44 20.2 59.672 19.264 59.896 18.256C60.12 17.232 60.344 16.176 60.568 15.088C60.792 13.984 61.008 12.864 61.216 11.728C61.44 10.592 61.648 9.472 61.84 8.368H64.96C64.4 11.376 63.776 14.272 63.088 17.056C62.4 19.824 61.632 22.472 60.784 25H57.904C56.656 21.768 55.448 18.24 54.28 14.416C53.688 16.352 53.088 18.192 52.48 19.936C51.872 21.68 51.264 23.368 50.656 25H47.776C46.912 22.472 46.136 19.824 45.448 17.056C44.776 14.272 44.16 11.376 43.6 8.368H46.84C47.032 9.456 47.232 10.568 47.44 11.704C47.664 12.84 47.888 13.96 48.112 15.064C48.352 16.152 48.592 17.208 48.832 18.232C49.072 19.256 49.312 20.2 49.552 21.064C49.856 20.248 50.16 19.392 50.464 18.496C50.784 17.584 51.096 16.664 51.4 15.736C51.704 14.792 51.992 13.856 52.264 12.928C52.552 12 52.816 11.104 53.056 10.24H55.648ZM67.0514 25V6.856L69.9554 6.376V12.592C70.2754 12.48 70.6434 12.384 71.0594 12.304C71.4914 12.224 71.9154 12.184 72.3314 12.184C73.3394 12.184 74.1714 12.328 74.8274 12.616C75.4994 12.888 76.0354 13.28 76.4354 13.792C76.8354 14.288 77.1154 14.888 77.2754 15.592C77.4514 16.296 77.5394 17.08 77.5394 17.944V25H74.6354V18.4C74.6354 17.728 74.5874 17.16 74.4914 16.696C74.4114 16.216 74.2674 15.832 74.0594 15.544C73.8674 15.24 73.6034 15.024 73.2674 14.896C72.9314 14.752 72.5154 14.68 72.0194 14.68C71.6354 14.68 71.2434 14.72 70.8434 14.8C70.4434 14.88 70.1474 14.952 69.9554 15.016V25H67.0514ZM85.1162 22.96C86.0122 22.96 86.6922 22.912 87.1562 22.816V19.6C86.9962 19.552 86.7642 19.504 86.4602 19.456C86.1562 19.408 85.8202 19.384 85.4522 19.384C85.1322 19.384 84.8042 19.408 84.4682 19.456C84.1482 19.504 83.8522 19.592 83.5802 19.72C83.3242 19.848 83.1162 20.032 82.9562 20.272C82.7962 20.496 82.7162 20.784 82.7162 21.136C82.7162 21.824 82.9322 22.304 83.3642 22.576C83.7962 22.832 84.3802 22.96 85.1162 22.96ZM84.8762 12.136C85.8362 12.136 86.6442 12.256 87.3002 12.496C87.9562 12.736 88.4762 13.072 88.8602 13.504C89.2602 13.936 89.5402 14.464 89.7002 15.088C89.8762 15.696 89.9642 16.368 89.9642 17.104V24.712C89.5162 24.808 88.8362 24.92 87.9242 25.048C87.0282 25.192 86.0122 25.264 84.8762 25.264C84.1242 25.264 83.4362 25.192 82.8122 25.048C82.1882 24.904 81.6522 24.672 81.2042 24.352C80.7722 24.032 80.4282 23.616 80.1722 23.104C79.9322 22.592 79.8122 21.96 79.8122 21.208C79.8122 20.488 79.9482 19.88 80.2202 19.384C80.5082 18.888 80.8922 18.488 81.3722 18.184C81.8522 17.864 82.4042 17.64 83.0282 17.512C83.6682 17.368 84.3322 17.296 85.0202 17.296C85.3402 17.296 85.6762 17.32 86.0282 17.368C86.3802 17.4 86.7562 17.464 87.1562 17.56V17.08C87.1562 16.744 87.1162 16.424 87.0362 16.12C86.9562 15.816 86.8122 15.552 86.6042 15.328C86.4122 15.088 86.1482 14.904 85.8122 14.776C85.4922 14.648 85.0842 14.584 84.5882 14.584C83.9162 14.584 83.3002 14.632 82.7402 14.728C82.1802 14.824 81.7242 14.936 81.3722 15.064L81.0122 12.712C81.3802 12.584 81.9162 12.456 82.6202 12.328C83.3242 12.2 84.0762 12.136 84.8762 12.136ZM93.0565 9.136L95.9605 8.656V12.448H100.425V14.872H95.9605V19.984C95.9605 20.992 96.1205 21.712 96.4405 22.144C96.7605 22.576 97.3045 22.792 98.0725 22.792C98.6005 22.792 99.0645 22.736 99.4645 22.624C99.8805 22.512 100.209 22.408 100.449 22.312L100.929 24.616C100.593 24.76 100.153 24.904 99.6085 25.048C99.0645 25.208 98.4245 25.288 97.6885 25.288C96.7925 25.288 96.0405 25.168 95.4325 24.928C94.8405 24.688 94.3685 24.344 94.0165 23.896C93.6645 23.432 93.4165 22.88 93.2725 22.24C93.1285 21.584 93.0565 20.84 93.0565 20.008V9.136ZM106.056 22.912C106.824 22.912 107.384 22.824 107.736 22.648C108.088 22.456 108.264 22.136 108.264 21.688C108.264 21.272 108.072 20.928 107.688 20.656C107.32 20.384 106.704 20.088 105.84 19.768C105.312 19.576 104.824 19.376 104.376 19.168C103.944 18.944 103.568 18.688 103.248 18.4C102.928 18.112 102.672 17.768 102.48 17.368C102.304 16.952 102.216 16.448 102.216 15.856C102.216 14.704 102.64 13.8 103.488 13.144C104.336 12.472 105.488 12.136 106.944 12.136C107.68 12.136 108.384 12.208 109.056 12.352C109.728 12.48 110.232 12.608 110.568 12.736L110.04 15.088C109.72 14.944 109.312 14.816 108.816 14.704C108.32 14.576 107.744 14.512 107.088 14.512C106.496 14.512 106.016 14.616 105.648 14.824C105.28 15.016 105.096 15.32 105.096 15.736C105.096 15.944 105.128 16.128 105.192 16.288C105.272 16.448 105.4 16.6 105.576 16.744C105.752 16.872 105.984 17.008 106.272 17.152C106.56 17.28 106.912 17.416 107.328 17.56C108.016 17.816 108.6 18.072 109.08 18.328C109.56 18.568 109.952 18.848 110.256 19.168C110.576 19.472 110.808 19.824 110.952 20.224C111.096 20.624 111.168 21.104 111.168 21.664C111.168 22.864 110.72 23.776 109.824 24.4C108.944 25.008 107.68 25.312 106.032 25.312C104.928 25.312 104.04 25.216 103.368 25.024C102.696 24.848 102.224 24.704 101.952 24.592L102.456 22.168C102.888 22.344 103.4 22.512 103.992 22.672C104.6 22.832 105.288 22.912 106.056 22.912ZM124.745 25C124.521 24.344 124.289 23.696 124.049 23.056C123.809 22.416 123.577 21.76 123.353 21.088H116.345C116.121 21.76 115.889 22.424 115.649 23.08C115.425 23.72 115.201 24.36 114.977 25H111.833C112.457 23.224 113.049 21.584 113.609 20.08C114.169 18.576 114.713 17.152 115.241 15.808C115.785 14.464 116.321 13.184 116.849 11.968C117.377 10.752 117.921 9.552 118.481 8.368H121.337C121.897 9.552 122.441 10.752 122.969 11.968C123.497 13.184 124.025 14.464 124.553 15.808C125.097 17.152 125.649 18.576 126.209 20.08C126.785 21.584 127.385 23.224 128.009 25H124.745ZM119.849 11.584C119.481 12.432 119.057 13.464 118.577 14.68C118.113 15.896 117.625 17.216 117.113 18.64H122.585C122.073 17.216 121.577 15.888 121.097 14.656C120.617 13.424 120.201 12.4 119.849 11.584ZM137.975 18.784C137.975 17.488 137.679 16.48 137.087 15.76C136.511 15.04 135.575 14.68 134.279 14.68C134.007 14.68 133.719 14.696 133.415 14.728C133.127 14.744 132.839 14.792 132.551 14.872V22.048C132.807 22.224 133.143 22.392 133.559 22.552C133.991 22.696 134.447 22.768 134.927 22.768C135.983 22.768 136.751 22.408 137.231 21.688C137.727 20.968 137.975 20 137.975 18.784ZM140.951 18.736C140.951 19.696 140.823 20.576 140.567 21.376C140.327 22.176 139.975 22.864 139.511 23.44C139.047 24.016 138.463 24.464 137.759 24.784C137.071 25.104 136.287 25.264 135.407 25.264C134.815 25.264 134.271 25.192 133.775 25.048C133.279 24.904 132.871 24.744 132.551 24.568V29.44H129.647V12.856C130.239 12.696 130.967 12.544 131.831 12.4C132.695 12.256 133.607 12.184 134.567 12.184C135.559 12.184 136.447 12.336 137.231 12.64C138.015 12.944 138.679 13.384 139.223 13.96C139.783 14.52 140.207 15.208 140.495 16.024C140.799 16.824 140.951 17.728 140.951 18.736ZM151.952 18.784C151.952 17.488 151.656 16.48 151.064 15.76C150.488 15.04 149.552 14.68 148.256 14.68C147.984 14.68 147.696 14.696 147.392 14.728C147.104 14.744 146.816 14.792 146.528 14.872V22.048C146.784 22.224 147.12 22.392 147.536 22.552C147.968 22.696 148.424 22.768 148.904 22.768C149.96 22.768 150.728 22.408 151.208 21.688C151.704 20.968 151.952 20 151.952 18.784ZM154.928 18.736C154.928 19.696 154.8 20.576 154.544 21.376C154.304 22.176 153.952 22.864 153.488 23.44C153.024 24.016 152.44 24.464 151.736 24.784C151.048 25.104 150.264 25.264 149.384 25.264C148.792 25.264 148.248 25.192 147.752 25.048C147.256 24.904 146.848 24.744 146.528 24.568V29.44H143.624V12.856C144.216 12.696 144.944 12.544 145.808 12.4C146.672 12.256 147.584 12.184 148.544 12.184C149.536 12.184 150.424 12.336 151.208 12.64C151.992 12.944 152.656 13.384 153.2 13.96C153.76 14.52 154.184 15.208 154.472 16.024C154.776 16.824 154.928 17.728 154.928 18.736Z" fill="#121212"/>
</svg>
